<svg xmlns="http://www.w3.org/2000/svg" viewBox="-33.14 4.14 258.94 258.94" width="64" height="64" role="img" aria-label="Stukdee">
  <circle cx="96.33" cy="133.61" r="127.47" fill="#fff6f9" stroke="#ff8fab" stroke-width="4.0" />
  <g><defs /> <g > <ellipse style="fill:#ffffff;stroke-width:8;stroke-linecap:round;stroke-linejoin:round;fill-opacity:1" cx="96.33223" cy="133.61494" rx="115.59867" ry="112.20778" /> <path style="fill:#ff3e3e;fill-opacity:1;stroke:#ff3e3e;stroke-width:8;stroke-linecap:round;stroke-linejoin:round;stroke-dasharray:none;stroke-opacity:1" d="M 78.648429,99.604908 27.366695,66.32109 l -0.246546,57.9385 z" /> <path style="fill:#ff3e3e;fill-opacity:1;stroke:#ff3e3e;stroke-width:8;stroke-linecap:round;stroke-linejoin:round;stroke-dasharray:none;stroke-opacity:1" d="m 108.97368,95.660159 59.66433,-41.666409 -3.45165,60.65051 z" /> </g> <g > <path style="fill:#ff3e3e;fill-opacity:1;stroke:#ff3e3e;stroke-width:8;stroke-linecap:round;stroke-linejoin:round;stroke-dasharray:none;stroke-opacity:1" d="m 87.277568,98.372173 c 0.886531,-9.180879 13.379192,-5.216318 12.32734,0.246547 -1.051851,5.46286 -13.213871,8.93433 -12.32734,-0.246547 z" /> </g> <g > <path style="fill:none;fill-opacity:1;stroke:#000000;stroke-width:8;stroke-linecap:round;stroke-linejoin:round;stroke-dasharray:none;stroke-opacity:1" d="m 46.701889,115.52572 c 4.695893,-12.99225 3.318375,-25.984506 2.106851,-38.976759 9.334811,10.446418 19.410537,20.744654 21.419664,32.656209" /> <path style="fill:none;fill-opacity:1;stroke:#000000;stroke-width:8;stroke-linecap:round;stroke-linejoin:round;stroke-dasharray:none;stroke-opacity:1" d="m 81.368179,108.39607 c 9.86281,-3.07988 19.725621,-3.9347 29.588431,-1.70703" /> <path style="fill:none;fill-opacity:1;stroke:#000000;stroke-width:8;stroke-linecap:round;stroke-linejoin:round;stroke-dasharray:none;stroke-opacity:1" d="m 117.78471,104.98202 c 0.16206,-15.593706 8.79615,-28.363403 15.36322,-41.822106 0.66757,15.539046 0.1947,32.091807 7.39711,41.822106" /> <path style="fill:none;fill-opacity:1;stroke:#000000;stroke-width:8;stroke-linecap:round;stroke-linejoin:round;stroke-dasharray:none;stroke-opacity:1" d="m 38.977065,123.47479 c -13.660679,10.33698 -7.66518,33.76115 5.690082,34.7095" /> <path style="fill:none;fill-opacity:1;stroke:#000000;stroke-width:8;stroke-linecap:round;stroke-linejoin:round;stroke-dasharray:none;stroke-opacity:1" d="m 148.51115,110.95661 c 12.67169,10.14731 10.17977,27.97624 -3.69856,38.12355" /> <path style="fill:#ff3e3e;fill-opacity:1;stroke:#ff3e3e;stroke-width:8;stroke-linecap:round;stroke-linejoin:round;stroke-dasharray:none;stroke-opacity:1" d="m 36.416527,168.14194 c 42.63835,-4.62771 73.440183,-9.12304 122.336773,-11.66467 6.43119,4.6469 10.91134,16.1219 0.85351,24.75186 -39.3975,10.74872 -81.060687,14.13395 -123.474787,15.07872 -5.297311,-9.38864 -4.262111,-18.77727 0.284504,-28.16591 z" /> <path style="fill:none;fill-opacity:1;stroke:#000000;stroke-width:8;stroke-linecap:round;stroke-linejoin:round;stroke-dasharray:none;stroke-opacity:1" d="m 56.597264,142.27381 8.782333,-18.54048 10.148474,12.29526" /> <path style="fill:none;fill-opacity:1;stroke:#000000;stroke-width:8;stroke-linecap:round;stroke-linejoin:round;stroke-dasharray:none;stroke-opacity:1" d="m 105.38801,136.22376 8.78233,-20.49211 9.95331,16.58885" /> </g></g>
</svg>
